<?xml version="1.0" encoding="UTF-8" standalone="no"?>
<!DOCTYPE svg PUBLIC "-//W3C//DTD SVG 1.1//EN"
 "http://www.w3.org/Graphics/SVG/1.1/DTD/svg11.dtd">
<!-- Generated by graphviz version 2.43.0 (0)
 -->
<!-- Title: take Pages: 1 -->
<svg width="427pt" height="98pt"
 viewBox="0.00 0.00 426.67 98.00" xmlns="http://www.w3.org/2000/svg" xmlns:xlink="http://www.w3.org/1999/xlink">
<g id="graph0" class="graph" transform="scale(1 1) rotate(0) translate(4 94)">
<title>take</title>
<polygon fill="white" stroke="transparent" points="-4,4 -4,-94 422.67,-94 422.67,4 -4,4"/>
<!-- hello -->
<g id="node1" class="node">
<title>hello</title>
<ellipse fill="none" stroke="black" cx="275.43" cy="-45" rx="33.29" ry="18"/>
<text text-anchor="middle" x="275.43" y="-41.3" font-family="Times,serif" font-size="14.00">hello</text>
</g>
<!-- :build -->
<g id="node2" class="node">
<title>:build</title>
<ellipse fill="none" stroke="black" cx="381.63" cy="-45" rx="37.09" ry="18"/>
<text text-anchor="middle" x="381.63" y="-41.3" font-family="Times,serif" font-size="14.00">:build</text>
</g>
<!-- hello&#45;&gt;:build -->
<g id="edge1" class="edge">
<title>hello&#45;&gt;:build</title>
<path fill="none" stroke="black" d="M308.83,-45C316.81,-45 325.52,-45 334.03,-45"/>
<polygon fill="black" stroke="black" points="334.25,-48.5 344.25,-45 334.25,-41.5 334.25,-48.5"/>
</g>
<!-- hello.o -->
<g id="node3" class="node">
<title>hello.o</title>
<ellipse fill="none" stroke="black" cx="163.39" cy="-72" rx="41.69" ry="18"/>
<text text-anchor="middle" x="163.39" y="-68.3" font-family="Times,serif" font-size="14.00">hello.o</text>
</g>
<!-- hello.o&#45;&gt;hello -->
<g id="edge2" class="edge">
<title>hello.o&#45;&gt;hello</title>
<path fill="none" stroke="black" d="M200.12,-63.23C211.17,-60.52 223.41,-57.52 234.71,-54.75"/>
<polygon fill="black" stroke="black" points="235.89,-58.06 244.77,-52.28 234.22,-51.26 235.89,-58.06"/>
</g>
<!-- hello.c -->
<g id="node4" class="node">
<title>hello.c</title>
<ellipse fill="none" stroke="black" cx="42.25" cy="-72" rx="40.89" ry="18"/>
<text text-anchor="middle" x="42.25" y="-68.3" font-family="Times,serif" font-size="14.00">hello.c</text>
</g>
<!-- hello.c&#45;&gt;hello.o -->
<g id="edge3" class="edge">
<title>hello.c&#45;&gt;hello.o</title>
<path fill="none" stroke="black" d="M83.25,-72C92.29,-72 102,-72 111.41,-72"/>
<polygon fill="black" stroke="black" points="111.47,-75.5 121.47,-72 111.47,-68.5 111.47,-75.5"/>
</g>
<!-- other.o -->
<g id="node5" class="node">
<title>other.o</title>
<ellipse fill="none" stroke="black" cx="163.39" cy="-18" rx="42.79" ry="18"/>
<text text-anchor="middle" x="163.39" y="-14.3" font-family="Times,serif" font-size="14.00">other.o</text>
</g>
<!-- other.o&#45;&gt;hello -->
<g id="edge4" class="edge">
<title>other.o&#45;&gt;hello</title>
<path fill="none" stroke="black" d="M200.73,-26.92C211.65,-29.6 223.7,-32.55 234.83,-35.28"/>
<polygon fill="black" stroke="black" points="234.19,-38.73 244.73,-37.71 235.85,-31.93 234.19,-38.73"/>
</g>
<!-- other.c -->
<g id="node6" class="node">
<title>other.c</title>
<ellipse fill="none" stroke="black" cx="42.25" cy="-18" rx="42.49" ry="18"/>
<text text-anchor="middle" x="42.25" y="-14.3" font-family="Times,serif" font-size="14.00">other.c</text>
</g>
<!-- other.c&#45;&gt;other.o -->
<g id="edge5" class="edge">
<title>other.c&#45;&gt;other.o</title>
<path fill="none" stroke="black" d="M84.58,-18C92.8,-18 101.53,-18 110.06,-18"/>
<polygon fill="black" stroke="black" points="110.32,-21.5 120.32,-18 110.32,-14.5 110.32,-21.5"/>
</g>
</g>
</svg>
