<?xml version="1.0" encoding="UTF-8" standalone="no"?>
<!DOCTYPE svg PUBLIC "-//W3C//DTD SVG 1.1//EN"
 "http://www.w3.org/Graphics/SVG/1.1/DTD/svg11.dtd">
<!-- Generated by graphviz version 2.43.0 (0)
 -->
<!-- Title: take Pages: 1 -->
<svg width="1590pt" height="98pt"
 viewBox="0.00 0.00 1589.98 98.00" xmlns="http://www.w3.org/2000/svg" xmlns:xlink="http://www.w3.org/1999/xlink">
<g id="graph0" class="graph" transform="scale(1 1) rotate(0) translate(4 94)">
<title>take</title>
<polygon fill="white" stroke="transparent" points="-4,4 -4,-94 1585.98,-94 1585.98,4 -4,4"/>
<!-- all -->
<g id="node1" class="node">
<title>all</title>
<ellipse fill="none" stroke="black" cx="1444.89" cy="-45" rx="27" ry="18"/>
<text text-anchor="middle" x="1444.89" y="-41.3" font-family="Times,serif" font-size="14.00">all</text>
</g>
<!-- :build -->
<g id="node2" class="node">
<title>:build</title>
<ellipse fill="none" stroke="black" cx="1544.93" cy="-45" rx="37.09" ry="18"/>
<text text-anchor="middle" x="1544.93" y="-41.3" font-family="Times,serif" font-size="14.00">:build</text>
</g>
<!-- all&#45;&gt;:build -->
<g id="edge1" class="edge">
<title>all&#45;&gt;:build</title>
<path fill="none" stroke="black" d="M1471.9,-45C1479.81,-45 1488.76,-45 1497.59,-45"/>
<polygon fill="black" stroke="black" points="1497.83,-48.5 1507.83,-45 1497.83,-41.5 1497.83,-48.5"/>
</g>
<!-- hello_cmake -->
<g id="node3" class="node">
<title>hello_cmake</title>
<ellipse fill="none" stroke="black" cx="1314.29" cy="-45" rx="67.69" ry="18"/>
<text text-anchor="middle" x="1314.29" y="-41.3" font-family="Times,serif" font-size="14.00">hello_cmake</text>
</g>
<!-- hello_cmake&#45;&gt;all -->
<g id="edge2" class="edge">
<title>hello_cmake&#45;&gt;all</title>
<path fill="none" stroke="black" d="M1382.23,-45C1390.97,-45 1399.64,-45 1407.61,-45"/>
<polygon fill="black" stroke="black" points="1407.61,-48.5 1417.61,-45 1407.61,-41.5 1407.61,-48.5"/>
</g>
<!-- CMakeFiles/hello_cmake.dir/main.cc.o -->
<g id="node4" class="node">
<title>CMakeFiles/hello_cmake.dir/main.cc.o</title>
<ellipse fill="none" stroke="black" cx="1022.87" cy="-45" rx="187.67" ry="18"/>
<text text-anchor="middle" x="1022.87" y="-41.3" font-family="Times,serif" font-size="14.00">CMakeFiles/hello_cmake.dir/main.cc.o</text>
</g>
<!-- CMakeFiles/hello_cmake.dir/main.cc.o&#45;&gt;hello_cmake -->
<g id="edge3" class="edge">
<title>CMakeFiles/hello_cmake.dir/main.cc.o&#45;&gt;hello_cmake</title>
<path fill="none" stroke="black" d="M1210.84,-45C1219.66,-45 1228.25,-45 1236.46,-45"/>
<polygon fill="black" stroke="black" points="1236.64,-48.5 1246.64,-45 1236.64,-41.5 1236.64,-48.5"/>
</g>
<!-- ../main.cc -->
<g id="node5" class="node">
<title>../main.cc</title>
<ellipse fill="none" stroke="black" cx="558.55" cy="-72" rx="55.49" ry="18"/>
<text text-anchor="middle" x="558.55" y="-68.3" font-family="Times,serif" font-size="14.00">../main.cc</text>
</g>
<!-- ../main.cc&#45;&gt;CMakeFiles/hello_cmake.dir/main.cc.o -->
<g id="edge4" class="edge">
<title>../main.cc&#45;&gt;CMakeFiles/hello_cmake.dir/main.cc.o</title>
<path fill="none" stroke="black" d="M613.04,-68.88C671.28,-65.47 767.42,-59.86 851.83,-54.93"/>
<polygon fill="black" stroke="black" points="852.29,-58.41 862.07,-54.33 851.88,-51.42 852.29,-58.41"/>
</g>
<!-- cmake_object_order_depends_target_hello_cmake -->
<g id="node6" class="node">
<title>cmake_object_order_depends_target_hello_cmake</title>
<ellipse fill="none" stroke="black" cx="558.55" cy="-18" rx="240.46" ry="18"/>
<text text-anchor="middle" x="558.55" y="-14.3" font-family="Times,serif" font-size="14.00">cmake_object_order_depends_target_hello_cmake</text>
</g>
<!-- cmake_object_order_depends_target_hello_cmake&#45;&gt;CMakeFiles/hello_cmake.dir/main.cc.o -->
<g id="edge5" class="edge">
<title>cmake_object_order_depends_target_hello_cmake&#45;&gt;CMakeFiles/hello_cmake.dir/main.cc.o</title>
<path fill="none" stroke="black" d="M748.59,-29.04C782.74,-31.03 818.15,-33.1 851.72,-35.06"/>
<polygon fill="black" stroke="black" points="851.89,-38.58 862.07,-35.67 852.29,-31.59 851.89,-38.58"/>
</g>
<!-- CMakeFiles/hello_cmake.dir -->
<g id="node7" class="node">
<title>CMakeFiles/hello_cmake.dir</title>
<ellipse fill="none" stroke="black" cx="141.04" cy="-18" rx="141.07" ry="18"/>
<text text-anchor="middle" x="141.04" y="-14.3" font-family="Times,serif" font-size="14.00">CMakeFiles/hello_cmake.dir</text>
</g>
<!-- CMakeFiles/hello_cmake.dir&#45;&gt;cmake_object_order_depends_target_hello_cmake -->
<g id="edge6" class="edge">
<title>CMakeFiles/hello_cmake.dir&#45;&gt;cmake_object_order_depends_target_hello_cmake</title>
<path fill="none" stroke="black" d="M282.13,-18C290.52,-18 299.06,-18 307.71,-18"/>
<polygon fill="black" stroke="black" points="307.91,-21.5 317.91,-18 307.91,-14.5 307.91,-21.5"/>
</g>
</g>
</svg>
