<?xml version="1.0" encoding="UTF-8" standalone="no"?>
<!DOCTYPE svg PUBLIC "-//W3C//DTD SVG 1.1//EN"
 "http://www.w3.org/Graphics/SVG/1.1/DTD/svg11.dtd">
<!-- Generated by graphviz version 2.49.3 (20211023.0002)
 -->
<!-- Title: take Pages: 1 -->
<svg width="353pt" height="260pt"
 viewBox="0.00 0.00 353.28 260.00" xmlns="http://www.w3.org/2000/svg" xmlns:xlink="http://www.w3.org/1999/xlink">
<g id="graph0" class="graph" transform="scale(1 1) rotate(0) translate(4 256)">
<title>take</title>
<polygon fill="white" stroke="transparent" points="-4,4 -4,-256 349.28,-256 349.28,4 -4,4"/>
<!-- all -->
<g id="node1" class="node">
<title>all</title>
<ellipse fill="none" stroke="black" cx="218.59" cy="-126" rx="27" ry="18"/>
<text text-anchor="middle" x="218.59" y="-122.3" font-family="Times,serif" font-size="14.00">all</text>
</g>
<!-- :build -->
<g id="node2" class="node">
<title>:build</title>
<ellipse fill="none" stroke="black" cx="313.44" cy="-126" rx="31.7" ry="18"/>
<text text-anchor="middle" x="313.44" y="-122.3" font-family="Times,serif" font-size="14.00">:build</text>
</g>
<!-- all&#45;&gt;:build -->
<g id="edge1" class="edge">
<title>all&#45;&gt;:build</title>
<path fill="none" stroke="black" d="M245.95,-126C253.8,-126 262.6,-126 271.16,-126"/>
<polygon fill="black" stroke="black" points="271.41,-129.5 281.41,-126 271.41,-122.5 271.41,-129.5"/>
</g>
<!-- foo.o -->
<g id="node3" class="node">
<title>foo.o</title>
<ellipse fill="none" stroke="black" cx="125.69" cy="-180" rx="29.8" ry="18"/>
<text text-anchor="middle" x="125.69" y="-176.3" font-family="Times,serif" font-size="14.00">foo.o</text>
</g>
<!-- foo.o&#45;&gt;all -->
<g id="edge2" class="edge">
<title>foo.o&#45;&gt;all</title>
<path fill="none" stroke="black" d="M147.77,-167.48C160.05,-160.18 175.68,-150.9 189.05,-142.96"/>
<polygon fill="black" stroke="black" points="191.06,-145.83 197.87,-137.72 187.48,-139.82 191.06,-145.83"/>
</g>
<!-- foo.c -->
<g id="node4" class="node">
<title>foo.c</title>
<ellipse fill="none" stroke="black" cx="29.9" cy="-234" rx="29.5" ry="18"/>
<text text-anchor="middle" x="29.9" y="-230.3" font-family="Times,serif" font-size="14.00">foo.c</text>
</g>
<!-- foo.c&#45;&gt;foo.o -->
<g id="edge3" class="edge">
<title>foo.c&#45;&gt;foo.o</title>
<path fill="none" stroke="black" d="M47.24,-219.33C59.06,-211.16 75.47,-201.29 90.14,-193.35"/>
<polygon fill="black" stroke="black" points="91.78,-196.45 99,-188.7 88.52,-190.25 91.78,-196.45"/>
</g>
<!-- foo.c&#45;&gt;foo.o -->
<g id="edge5" class="edge">
<title>foo.c&#45;&gt;foo.o</title>
<path fill="none" stroke="black" d="M56.03,-225.59C69.65,-218.68 86.42,-209.01 99.98,-200.26"/>
<polygon fill="black" stroke="black" points="101.98,-203.13 108.36,-194.67 98.09,-197.31 101.98,-203.13"/>
</g>
<!-- .deps -->
<g id="node5" class="node">
<title>.deps</title>
<ellipse fill="none" stroke="black" cx="29.9" cy="-126" rx="29.8" ry="18"/>
<text text-anchor="middle" x="29.9" y="-122.3" font-family="Times,serif" font-size="14.00">.deps</text>
</g>
<!-- .deps&#45;&gt;foo.o -->
<g id="edge4" class="edge">
<title>.deps&#45;&gt;foo.o</title>
<path fill="none" stroke="black" d="M52.18,-138.25C64.77,-145.5 80.92,-154.8 94.78,-162.78"/>
<polygon fill="black" stroke="black" points="93.08,-165.84 103.49,-167.8 96.57,-159.77 93.08,-165.84"/>
</g>
<!-- bar.o -->
<g id="node7" class="node">
<title>bar.o</title>
<ellipse fill="none" stroke="black" cx="125.69" cy="-72" rx="28.7" ry="18"/>
<text text-anchor="middle" x="125.69" y="-68.3" font-family="Times,serif" font-size="14.00">bar.o</text>
</g>
<!-- .deps&#45;&gt;bar.o -->
<g id="edge9" class="edge">
<title>.deps&#45;&gt;bar.o</title>
<path fill="none" stroke="black" d="M52.18,-113.75C64.95,-106.4 81.37,-96.94 95.36,-88.89"/>
<polygon fill="black" stroke="black" points="97.22,-91.86 104.14,-83.83 93.72,-85.79 97.22,-91.86"/>
</g>
<!-- foo.h -->
<g id="node6" class="node">
<title>foo.h</title>
<ellipse fill="none" stroke="black" cx="29.9" cy="-180" rx="29.8" ry="18"/>
<text text-anchor="middle" x="29.9" y="-176.3" font-family="Times,serif" font-size="14.00">foo.h</text>
</g>
<!-- foo.h&#45;&gt;foo.o -->
<g id="edge6" class="edge">
<title>foo.h&#45;&gt;foo.o</title>
<path fill="none" stroke="black" d="M59.8,-180C67.92,-180 76.88,-180 85.48,-180"/>
<polygon fill="black" stroke="black" points="85.72,-183.5 95.72,-180 85.72,-176.5 85.72,-183.5"/>
</g>
<!-- bar.o&#45;&gt;all -->
<g id="edge7" class="edge">
<title>bar.o&#45;&gt;all</title>
<path fill="none" stroke="black" d="M147.32,-84.25C159.66,-91.59 175.53,-101.01 189.06,-109.05"/>
<polygon fill="black" stroke="black" points="187.59,-112.25 197.98,-114.35 191.17,-106.23 187.59,-112.25"/>
</g>
<!-- bar.c -->
<g id="node8" class="node">
<title>bar.c</title>
<ellipse fill="none" stroke="black" cx="29.9" cy="-72" rx="27.9" ry="18"/>
<text text-anchor="middle" x="29.9" y="-68.3" font-family="Times,serif" font-size="14.00">bar.c</text>
</g>
<!-- bar.c&#45;&gt;bar.o -->
<g id="edge8" class="edge">
<title>bar.c&#45;&gt;bar.o</title>
<path fill="none" stroke="black" d="M56.53,-65.91C66.37,-65.25 77.8,-65.09 88.46,-65.41"/>
<polygon fill="black" stroke="black" points="88.61,-68.92 98.77,-65.89 88.94,-61.93 88.61,-68.92"/>
</g>
<!-- bar.c&#45;&gt;bar.o -->
<g id="edge10" class="edge">
<title>bar.c&#45;&gt;bar.o</title>
<path fill="none" stroke="black" d="M56.53,-78.09C66.37,-78.75 77.8,-78.91 88.46,-78.59"/>
<polygon fill="black" stroke="black" points="88.94,-82.07 98.77,-78.11 88.61,-75.08 88.94,-82.07"/>
</g>
<!-- bar.h -->
<g id="node9" class="node">
<title>bar.h</title>
<ellipse fill="none" stroke="black" cx="29.9" cy="-18" rx="28.7" ry="18"/>
<text text-anchor="middle" x="29.9" y="-14.3" font-family="Times,serif" font-size="14.00">bar.h</text>
</g>
<!-- bar.h&#45;&gt;bar.o -->
<g id="edge11" class="edge">
<title>bar.h&#45;&gt;bar.o</title>
<path fill="none" stroke="black" d="M51.71,-29.98C64.46,-37.33 80.99,-46.84 95.08,-54.95"/>
<polygon fill="black" stroke="black" points="93.52,-58.09 103.93,-60.05 97.01,-52.03 93.52,-58.09"/>
</g>
</g>
</svg>
