<?xml version="1.0" encoding="UTF-8" standalone="no"?>
<!DOCTYPE svg PUBLIC "-//W3C//DTD SVG 1.1//EN"
 "http://www.w3.org/Graphics/SVG/1.1/DTD/svg11.dtd">
<!-- Generated by graphviz version 2.43.0 (0)
 -->
<!-- Title: take Pages: 1 -->
<svg width="871pt" height="260pt"
 viewBox="0.00 0.00 870.84 260.00" xmlns="http://www.w3.org/2000/svg" xmlns:xlink="http://www.w3.org/1999/xlink">
<g id="graph0" class="graph" transform="scale(1 1) rotate(0) translate(4 256)">
<title>take</title>
<polygon fill="white" stroke="transparent" points="-4,4 -4,-256 866.84,-256 866.84,4 -4,4"/>
<!-- prog -->
<g id="node1" class="node">
<title>prog</title>
<ellipse fill="none" stroke="black" cx="720.25" cy="-126" rx="32.49" ry="18"/>
<text text-anchor="middle" x="720.25" y="-122.3" font-family="Times,serif" font-size="14.00">prog</text>
</g>
<!-- :build -->
<g id="node2" class="node">
<title>:build</title>
<ellipse fill="none" stroke="black" cx="825.79" cy="-126" rx="37.09" ry="18"/>
<text text-anchor="middle" x="825.79" y="-122.3" font-family="Times,serif" font-size="14.00">:build</text>
</g>
<!-- prog&#45;&gt;:build -->
<g id="edge1" class="edge">
<title>prog&#45;&gt;:build</title>
<path fill="none" stroke="black" d="M752.87,-126C761,-126 769.9,-126 778.6,-126"/>
<polygon fill="black" stroke="black" points="778.64,-129.5 788.64,-126 778.64,-122.5 778.64,-129.5"/>
</g>
<!-- main.o -->
<g id="node3" class="node">
<title>main.o</title>
<ellipse fill="none" stroke="black" cx="547.11" cy="-234" rx="42.49" ry="18"/>
<text text-anchor="middle" x="547.11" y="-230.3" font-family="Times,serif" font-size="14.00">main.o</text>
</g>
<!-- main.o&#45;&gt;prog -->
<g id="edge2" class="edge">
<title>main.o&#45;&gt;prog</title>
<path fill="none" stroke="black" d="M588.08,-229.5C608.36,-225.8 632.67,-219.1 651.75,-207 673.46,-193.22 691.68,-170.16 703.69,-152.17"/>
<polygon fill="black" stroke="black" points="706.93,-153.6 709.39,-143.29 701.04,-149.81 706.93,-153.6"/>
</g>
<!-- main.c -->
<g id="node4" class="node">
<title>main.c</title>
<ellipse fill="none" stroke="black" cx="313.53" cy="-234" rx="41.69" ry="18"/>
<text text-anchor="middle" x="313.53" y="-230.3" font-family="Times,serif" font-size="14.00">main.c</text>
</g>
<!-- main.c&#45;&gt;main.o -->
<g id="edge3" class="edge">
<title>main.c&#45;&gt;main.o</title>
<path fill="none" stroke="black" d="M355.13,-234C393.96,-234 452.66,-234 494.72,-234"/>
<polygon fill="black" stroke="black" points="494.77,-237.5 504.77,-234 494.77,-230.5 494.77,-237.5"/>
</g>
<!-- f1.o -->
<g id="node5" class="node">
<title>f1.o</title>
<ellipse fill="none" stroke="black" cx="547.11" cy="-180" rx="28.7" ry="18"/>
<text text-anchor="middle" x="547.11" y="-176.3" font-family="Times,serif" font-size="14.00">f1.o</text>
</g>
<!-- f1.o&#45;&gt;prog -->
<g id="edge4" class="edge">
<title>f1.o&#45;&gt;prog</title>
<path fill="none" stroke="black" d="M574.35,-174.13C595.46,-169.17 625.78,-161.54 651.75,-153 662.67,-149.41 674.37,-144.95 684.91,-140.7"/>
<polygon fill="black" stroke="black" points="686.28,-143.92 694.2,-136.89 683.62,-137.45 686.28,-143.92"/>
</g>
<!-- f1.c -->
<g id="node6" class="node">
<title>f1.c</title>
<ellipse fill="none" stroke="black" cx="313.53" cy="-180" rx="27.9" ry="18"/>
<text text-anchor="middle" x="313.53" y="-176.3" font-family="Times,serif" font-size="14.00">f1.c</text>
</g>
<!-- f1.c&#45;&gt;f1.o -->
<g id="edge5" class="edge">
<title>f1.c&#45;&gt;f1.o</title>
<path fill="none" stroke="black" d="M341.54,-180C382.7,-180 461.24,-180 508.12,-180"/>
<polygon fill="black" stroke="black" points="508.18,-183.5 518.18,-180 508.18,-176.5 508.18,-183.5"/>
</g>
<!-- f2.o -->
<g id="node7" class="node">
<title>f2.o</title>
<ellipse fill="none" stroke="black" cx="547.11" cy="-126" rx="28.7" ry="18"/>
<text text-anchor="middle" x="547.11" y="-122.3" font-family="Times,serif" font-size="14.00">f2.o</text>
</g>
<!-- f2.o&#45;&gt;prog -->
<g id="edge6" class="edge">
<title>f2.o&#45;&gt;prog</title>
<path fill="none" stroke="black" d="M575.98,-126C603.47,-126 645.82,-126 677.36,-126"/>
<polygon fill="black" stroke="black" points="677.6,-129.5 687.6,-126 677.6,-122.5 677.6,-129.5"/>
</g>
<!-- f2.c -->
<g id="node8" class="node">
<title>f2.c</title>
<ellipse fill="none" stroke="black" cx="313.53" cy="-126" rx="27.9" ry="18"/>
<text text-anchor="middle" x="313.53" y="-122.3" font-family="Times,serif" font-size="14.00">f2.c</text>
</g>
<!-- f2.c&#45;&gt;f2.o -->
<g id="edge7" class="edge">
<title>f2.c&#45;&gt;f2.o</title>
<path fill="none" stroke="black" d="M341.54,-126C382.7,-126 461.24,-126 508.12,-126"/>
<polygon fill="black" stroke="black" points="508.18,-129.5 518.18,-126 508.18,-122.5 508.18,-129.5"/>
</g>
<!-- libfoo/libfoo.a -->
<g id="node9" class="node">
<title>libfoo/libfoo.a</title>
<ellipse fill="none" stroke="black" cx="547.11" cy="-72" rx="73.39" ry="18"/>
<text text-anchor="middle" x="547.11" y="-68.3" font-family="Times,serif" font-size="14.00">libfoo/libfoo.a</text>
</g>
<!-- libfoo/libfoo.a&#45;&gt;prog -->
<g id="edge8" class="edge">
<title>libfoo/libfoo.a&#45;&gt;prog</title>
<path fill="none" stroke="black" d="M600.67,-84.33C617.15,-88.56 635.32,-93.6 651.75,-99 662.67,-102.59 674.37,-107.05 684.91,-111.3"/>
<polygon fill="black" stroke="black" points="683.62,-114.55 694.2,-115.11 686.28,-108.08 683.62,-114.55"/>
</g>
<!-- libfoo/foo.o -->
<g id="node10" class="node">
<title>libfoo/foo.o</title>
<ellipse fill="none" stroke="black" cx="313.53" cy="-72" rx="61.99" ry="18"/>
<text text-anchor="middle" x="313.53" y="-68.3" font-family="Times,serif" font-size="14.00">libfoo/foo.o</text>
</g>
<!-- libfoo/foo.o&#45;&gt;libfoo/libfoo.a -->
<g id="edge9" class="edge">
<title>libfoo/foo.o&#45;&gt;libfoo/libfoo.a</title>
<path fill="none" stroke="black" d="M375.37,-72C402.22,-72 434.21,-72 463.2,-72"/>
<polygon fill="black" stroke="black" points="463.31,-75.5 473.31,-72 463.31,-68.5 463.31,-75.5"/>
</g>
<!-- libfoo/foo.c -->
<g id="node11" class="node">
<title>libfoo/foo.c</title>
<ellipse fill="none" stroke="black" cx="92.29" cy="-72" rx="61.99" ry="18"/>
<text text-anchor="middle" x="92.29" y="-68.3" font-family="Times,serif" font-size="14.00">libfoo/foo.c</text>
</g>
<!-- libfoo/foo.c&#45;&gt;libfoo/foo.o -->
<g id="edge10" class="edge">
<title>libfoo/foo.c&#45;&gt;libfoo/foo.o</title>
<path fill="none" stroke="black" d="M154.07,-72C181.16,-72 213.24,-72 241.44,-72"/>
<polygon fill="black" stroke="black" points="241.63,-75.5 251.63,-72 241.63,-68.5 241.63,-75.5"/>
</g>
<!-- libfoo/libbar/libbar.a -->
<g id="node12" class="node">
<title>libfoo/libbar/libbar.a</title>
<ellipse fill="none" stroke="black" cx="547.11" cy="-18" rx="104.78" ry="18"/>
<text text-anchor="middle" x="547.11" y="-14.3" font-family="Times,serif" font-size="14.00">libfoo/libbar/libbar.a</text>
</g>
<!-- libfoo/libbar/libbar.a&#45;&gt;prog -->
<g id="edge11" class="edge">
<title>libfoo/libbar/libbar.a&#45;&gt;prog</title>
<path fill="none" stroke="black" d="M621.04,-30.82C631.81,-34.44 642.41,-39.07 651.75,-45 673.46,-58.78 691.68,-81.84 703.69,-99.83"/>
<polygon fill="black" stroke="black" points="701.04,-102.19 709.39,-108.71 706.93,-98.4 701.04,-102.19"/>
</g>
<!-- libfoo/libbar/bar.o -->
<g id="node13" class="node">
<title>libfoo/libbar/bar.o</title>
<ellipse fill="none" stroke="black" cx="313.53" cy="-18" rx="92.88" ry="18"/>
<text text-anchor="middle" x="313.53" y="-14.3" font-family="Times,serif" font-size="14.00">libfoo/libbar/bar.o</text>
</g>
<!-- libfoo/libbar/bar.o&#45;&gt;libfoo/libbar/libbar.a -->
<g id="edge12" class="edge">
<title>libfoo/libbar/bar.o&#45;&gt;libfoo/libbar/libbar.a</title>
<path fill="none" stroke="black" d="M406.72,-18C415.15,-18 423.76,-18 432.35,-18"/>
<polygon fill="black" stroke="black" points="432.41,-21.5 442.41,-18 432.41,-14.5 432.41,-21.5"/>
</g>
<!-- libfoo/libbar/bar.c -->
<g id="node14" class="node">
<title>libfoo/libbar/bar.c</title>
<ellipse fill="none" stroke="black" cx="92.29" cy="-18" rx="92.08" ry="18"/>
<text text-anchor="middle" x="92.29" y="-14.3" font-family="Times,serif" font-size="14.00">libfoo/libbar/bar.c</text>
</g>
<!-- libfoo/libbar/bar.c&#45;&gt;libfoo/libbar/bar.o -->
<g id="edge13" class="edge">
<title>libfoo/libbar/bar.c&#45;&gt;libfoo/libbar/bar.o</title>
<path fill="none" stroke="black" d="M184.68,-18C193.21,-18 201.89,-18 210.51,-18"/>
<polygon fill="black" stroke="black" points="210.58,-21.5 220.58,-18 210.58,-14.5 210.58,-21.5"/>
</g>
</g>
</svg>
