<?xml version="1.0" encoding="UTF-8" standalone="no"?>
<!DOCTYPE svg PUBLIC "-//W3C//DTD SVG 1.1//EN"
 "http://www.w3.org/Graphics/SVG/1.1/DTD/svg11.dtd">
<!-- Generated by graphviz version 2.43.0 (0)
 -->
<!-- Title: take Pages: 1 -->
<svg width="587pt" height="622pt"
 viewBox="0.00 0.00 587.26 622.00" xmlns="http://www.w3.org/2000/svg" xmlns:xlink="http://www.w3.org/1999/xlink">
<g id="graph0" class="graph" transform="scale(1 1) rotate(0) translate(4 618)">
<title>take</title>
<polygon fill="white" stroke="transparent" points="-4,4 -4,-618 583.26,-618 583.26,4 -4,4"/>
<!-- :all -->
<g id="node1" class="node">
<title>:all</title>
<ellipse fill="none" stroke="black" cx="442.17" cy="-234" rx="27" ry="18"/>
<text text-anchor="middle" x="442.17" y="-230.3" font-family="Times,serif" font-size="14.00">:all</text>
</g>
<!-- :build -->
<g id="node2" class="node">
<title>:build</title>
<ellipse fill="none" stroke="black" cx="542.22" cy="-234" rx="37.09" ry="18"/>
<text text-anchor="middle" x="542.22" y="-230.3" font-family="Times,serif" font-size="14.00">:build</text>
</g>
<!-- :all&#45;&gt;:build -->
<g id="edge1" class="edge">
<title>:all&#45;&gt;:build</title>
<path fill="none" stroke="black" d="M469.19,-234C477.1,-234 486.04,-234 494.87,-234"/>
<polygon fill="black" stroke="black" points="495.11,-237.5 505.11,-234 495.11,-230.5 495.11,-237.5"/>
</g>
<!-- hello -->
<g id="node3" class="node">
<title>hello</title>
<ellipse fill="none" stroke="black" cx="111.14" cy="-596" rx="33.29" ry="18"/>
<text text-anchor="middle" x="111.14" y="-592.3" font-family="Times,serif" font-size="14.00">hello</text>
</g>
<!-- hello&#45;&gt;:all -->
<g id="edge2" class="edge">
<title>hello&#45;&gt;:all</title>
<path fill="none" stroke="black" d="M144,-593.59C200.99,-587.45 319.93,-565.98 379.17,-492 434.14,-423.35 441.6,-313.6 441.84,-262.23"/>
<polygon fill="black" stroke="black" points="445.34,-262.18 441.8,-252.19 438.34,-262.21 445.34,-262.18"/>
</g>
<!-- build -->
<g id="node17" class="node">
<title>build</title>
<ellipse fill="none" stroke="black" cx="318.72" cy="-465" rx="34.39" ry="18"/>
<text text-anchor="middle" x="318.72" y="-461.3" font-family="Times,serif" font-size="14.00">build</text>
</g>
<!-- hello&#45;&gt;build -->
<g id="edge17" class="edge">
<title>hello&#45;&gt;build</title>
<path fill="none" stroke="black" d="M143.9,-593.18C166.96,-589.99 198.22,-583.24 222.28,-569 240.06,-558.48 275.8,-516.73 298.15,-489.43"/>
<polygon fill="black" stroke="black" points="301.03,-491.44 304.62,-481.47 295.59,-487.02 301.03,-491.44"/>
</g>
<!-- all -->
<g id="node4" class="node">
<title>all</title>
<ellipse fill="none" stroke="black" cx="318.72" cy="-326" rx="27" ry="18"/>
<text text-anchor="middle" x="318.72" y="-322.3" font-family="Times,serif" font-size="14.00">all</text>
</g>
<!-- all&#45;&gt;:all -->
<g id="edge3" class="edge">
<title>all&#45;&gt;:all</title>
<path fill="none" stroke="black" d="M341.48,-316.09C353.12,-310.35 367.44,-302.58 379.17,-294 394.15,-283.05 409.14,-268.65 420.64,-256.7"/>
<polygon fill="black" stroke="black" points="423.34,-258.94 427.65,-249.26 418.24,-254.14 423.34,-258.94"/>
</g>
<!-- hello&#45;linux&#45;amd64 -->
<g id="node5" class="node">
<title>hello&#45;linux&#45;amd64</title>
<ellipse fill="none" stroke="black" cx="111.14" cy="-542" rx="92.88" ry="18"/>
<text text-anchor="middle" x="111.14" y="-538.3" font-family="Times,serif" font-size="14.00">hello&#45;linux&#45;amd64</text>
</g>
<!-- hello&#45;linux&#45;amd64&#45;&gt;all -->
<g id="edge4" class="edge">
<title>hello&#45;linux&#45;amd64&#45;&gt;all</title>
<path fill="none" stroke="black" d="M189.77,-532.32C201.52,-528.32 212.84,-522.74 222.28,-515 251.49,-491.04 241.42,-471.81 258.28,-438 273.15,-408.18 291.22,-374.47 303.51,-351.89"/>
<polygon fill="black" stroke="black" points="306.67,-353.39 308.39,-342.94 300.53,-350.04 306.67,-353.39"/>
</g>
<!-- hello&#45;linux&#45;386 -->
<g id="node6" class="node">
<title>hello&#45;linux&#45;386</title>
<ellipse fill="none" stroke="black" cx="111.14" cy="-488" rx="79.09" ry="18"/>
<text text-anchor="middle" x="111.14" y="-484.3" font-family="Times,serif" font-size="14.00">hello&#45;linux&#45;386</text>
</g>
<!-- hello&#45;linux&#45;386&#45;&gt;all -->
<g id="edge5" class="edge">
<title>hello&#45;linux&#45;386&#45;&gt;all</title>
<path fill="none" stroke="black" d="M180.58,-479.22C195.18,-475.22 209.91,-469.42 222.28,-461 262.31,-433.74 291.04,-383.76 305.97,-352.86"/>
<polygon fill="black" stroke="black" points="309.26,-354.09 310.33,-343.55 302.92,-351.12 309.26,-354.09"/>
</g>
<!-- hello&#45;linux&#45;arm -->
<g id="node7" class="node">
<title>hello&#45;linux&#45;arm</title>
<ellipse fill="none" stroke="black" cx="111.14" cy="-434" rx="79.89" ry="18"/>
<text text-anchor="middle" x="111.14" y="-430.3" font-family="Times,serif" font-size="14.00">hello&#45;linux&#45;arm</text>
</g>
<!-- hello&#45;linux&#45;arm&#45;&gt;all -->
<g id="edge6" class="edge">
<title>hello&#45;linux&#45;arm&#45;&gt;all</title>
<path fill="none" stroke="black" d="M176.56,-423.49C192.04,-419.55 208.16,-414.21 222.28,-407 251.24,-392.21 278.95,-367.04 296.98,-348.67"/>
<polygon fill="black" stroke="black" points="299.69,-350.91 304.09,-341.27 294.64,-346.06 299.69,-350.91"/>
</g>
<!-- hello&#45;linux&#45;arm64 -->
<g id="node8" class="node">
<title>hello&#45;linux&#45;arm64</title>
<ellipse fill="none" stroke="black" cx="111.14" cy="-380" rx="91.78" ry="18"/>
<text text-anchor="middle" x="111.14" y="-376.3" font-family="Times,serif" font-size="14.00">hello&#45;linux&#45;arm64</text>
</g>
<!-- hello&#45;linux&#45;arm64&#45;&gt;all -->
<g id="edge7" class="edge">
<title>hello&#45;linux&#45;arm64&#45;&gt;all</title>
<path fill="none" stroke="black" d="M170.26,-366.16C187.07,-362.05 205.43,-357.45 222.28,-353 242.7,-347.61 265.45,-341.19 283.62,-335.96"/>
<polygon fill="black" stroke="black" points="284.83,-339.26 293.47,-333.12 282.89,-332.53 284.83,-339.26"/>
</g>
<!-- hello&#45;darwin&#45;amd64 -->
<g id="node9" class="node">
<title>hello&#45;darwin&#45;amd64</title>
<ellipse fill="none" stroke="black" cx="111.14" cy="-326" rx="102.88" ry="18"/>
<text text-anchor="middle" x="111.14" y="-322.3" font-family="Times,serif" font-size="14.00">hello&#45;darwin&#45;amd64</text>
</g>
<!-- hello&#45;darwin&#45;amd64&#45;&gt;all -->
<g id="edge8" class="edge">
<title>hello&#45;darwin&#45;amd64&#45;&gt;all</title>
<path fill="none" stroke="black" d="M214.03,-326C238.11,-326 262.26,-326 281.19,-326"/>
<polygon fill="black" stroke="black" points="281.41,-329.5 291.41,-326 281.41,-322.5 281.41,-329.5"/>
</g>
<!-- hello&#45;darwin&#45;arm64 -->
<g id="node10" class="node">
<title>hello&#45;darwin&#45;arm64</title>
<ellipse fill="none" stroke="black" cx="111.14" cy="-272" rx="101.28" ry="18"/>
<text text-anchor="middle" x="111.14" y="-268.3" font-family="Times,serif" font-size="14.00">hello&#45;darwin&#45;arm64</text>
</g>
<!-- hello&#45;darwin&#45;arm64&#45;&gt;all -->
<g id="edge9" class="edge">
<title>hello&#45;darwin&#45;arm64&#45;&gt;all</title>
<path fill="none" stroke="black" d="M172.55,-286.4C188.73,-290.37 206.19,-294.75 222.28,-299 242.7,-304.39 265.45,-310.81 283.62,-316.04"/>
<polygon fill="black" stroke="black" points="282.89,-319.47 293.47,-318.88 284.83,-312.74 282.89,-319.47"/>
</g>
<!-- hello&#45;openbsd&#45;amd64 -->
<g id="node11" class="node">
<title>hello&#45;openbsd&#45;amd64</title>
<ellipse fill="none" stroke="black" cx="111.14" cy="-218" rx="109.68" ry="18"/>
<text text-anchor="middle" x="111.14" y="-214.3" font-family="Times,serif" font-size="14.00">hello&#45;openbsd&#45;amd64</text>
</g>
<!-- hello&#45;openbsd&#45;amd64&#45;&gt;all -->
<g id="edge10" class="edge">
<title>hello&#45;openbsd&#45;amd64&#45;&gt;all</title>
<path fill="none" stroke="black" d="M191.7,-230.38C202.5,-234.06 213.03,-238.82 222.28,-245 244.75,-260.01 237.88,-276.27 258.28,-294 266.51,-301.15 276.6,-307.33 286.12,-312.3"/>
<polygon fill="black" stroke="black" points="284.84,-315.57 295.36,-316.85 287.94,-309.29 284.84,-315.57"/>
</g>
<!-- hello&#45;freebsd&#45;amd64 -->
<g id="node12" class="node">
<title>hello&#45;freebsd&#45;amd64</title>
<ellipse fill="none" stroke="black" cx="111.14" cy="-164" rx="105.88" ry="18"/>
<text text-anchor="middle" x="111.14" y="-160.3" font-family="Times,serif" font-size="14.00">hello&#45;freebsd&#45;amd64</text>
</g>
<!-- hello&#45;freebsd&#45;amd64&#45;&gt;all -->
<g id="edge11" class="edge">
<title>hello&#45;freebsd&#45;amd64&#45;&gt;all</title>
<path fill="none" stroke="black" d="M195.78,-174.88C205.49,-178.81 214.63,-184.05 222.28,-191 258.17,-223.61 226.8,-257.12 258.28,-294 265.43,-302.38 275.34,-308.92 285.02,-313.84"/>
<polygon fill="black" stroke="black" points="283.59,-317.03 294.14,-318.07 286.54,-310.68 283.59,-317.03"/>
</g>
<!-- hello&#45;windows&#45;amd64 -->
<g id="node13" class="node">
<title>hello&#45;windows&#45;amd64</title>
<ellipse fill="none" stroke="black" cx="111.14" cy="-110" rx="111.28" ry="18"/>
<text text-anchor="middle" x="111.14" y="-106.3" font-family="Times,serif" font-size="14.00">hello&#45;windows&#45;amd64</text>
</g>
<!-- hello&#45;windows&#45;amd64&#45;&gt;all -->
<g id="edge12" class="edge">
<title>hello&#45;windows&#45;amd64&#45;&gt;all</title>
<path fill="none" stroke="black" d="M198.98,-121.18C207.63,-125.11 215.65,-130.27 222.28,-137 272.52,-188 214.89,-237.06 258.28,-294 265.01,-302.83 274.9,-309.51 284.69,-314.42"/>
<polygon fill="black" stroke="black" points="283.38,-317.67 293.93,-318.59 286.26,-311.29 283.38,-317.67"/>
</g>
<!-- cover.out -->
<g id="node14" class="node">
<title>cover.out</title>
<ellipse fill="none" stroke="black" cx="111.14" cy="-56" rx="53.09" ry="18"/>
<text text-anchor="middle" x="111.14" y="-52.3" font-family="Times,serif" font-size="14.00">cover.out</text>
</g>
<!-- cover.out&#45;&gt;:all -->
<g id="edge13" class="edge">
<title>cover.out&#45;&gt;:all</title>
<path fill="none" stroke="black" d="M164.4,-57.13C185.04,-60.26 207.35,-67.45 222.28,-83 278.18,-141.23 195.81,-209.9 258.28,-261 302.14,-296.88 372.48,-270.43 411.92,-250.56"/>
<polygon fill="black" stroke="black" points="414.01,-253.42 421.25,-245.69 410.77,-247.21 414.01,-253.42"/>
</g>
<!-- cover&#45;html -->
<g id="node20" class="node">
<title>cover&#45;html</title>
<ellipse fill="none" stroke="black" cx="318.72" cy="-234" rx="60.39" ry="18"/>
<text text-anchor="middle" x="318.72" y="-230.3" font-family="Times,serif" font-size="14.00">cover&#45;html</text>
</g>
<!-- cover.out&#45;&gt;cover&#45;html -->
<g id="edge21" class="edge">
<title>cover.out&#45;&gt;cover&#45;html</title>
<path fill="none" stroke="black" d="M164.34,-57.84C184.73,-61.11 206.86,-68.22 222.28,-83 263.7,-122.71 220.72,-163.61 258.28,-207 261.08,-210.23 264.34,-213.09 267.87,-215.63"/>
<polygon fill="black" stroke="black" points="266.15,-218.68 276.49,-220.97 269.83,-212.73 266.15,-218.68"/>
</g>
<!-- cover -->
<g id="node15" class="node">
<title>cover</title>
<ellipse fill="none" stroke="black" cx="318.72" cy="-180" rx="36.29" ry="18"/>
<text text-anchor="middle" x="318.72" y="-176.3" font-family="Times,serif" font-size="14.00">cover</text>
</g>
<!-- cover&#45;&gt;:all -->
<g id="edge14" class="edge">
<title>cover&#45;&gt;:all</title>
<path fill="none" stroke="black" d="M346.38,-191.85C365.1,-200.17 390.21,-211.34 409.88,-220.09"/>
<polygon fill="black" stroke="black" points="408.49,-223.3 419.05,-224.16 411.33,-216.9 408.49,-223.3"/>
</g>
<!-- clean -->
<g id="node16" class="node">
<title>clean</title>
<ellipse fill="none" stroke="black" cx="318.72" cy="-126" rx="35.19" ry="18"/>
<text text-anchor="middle" x="318.72" y="-122.3" font-family="Times,serif" font-size="14.00">clean</text>
</g>
<!-- clean&#45;&gt;:all -->
<g id="edge15" class="edge">
<title>clean&#45;&gt;:all</title>
<path fill="none" stroke="black" d="M348.56,-135.74C358.85,-140.05 370.12,-145.8 379.17,-153 398.53,-168.4 415.21,-191.1 426.39,-208.56"/>
<polygon fill="black" stroke="black" points="423.46,-210.49 431.71,-217.14 429.41,-206.8 423.46,-210.49"/>
</g>
<!-- build&#45;&gt;:all -->
<g id="edge16" class="edge">
<title>build&#45;&gt;:all</title>
<path fill="none" stroke="black" d="M329.03,-447.56C340.77,-425.55 361.55,-386.51 379.17,-353 396.02,-320.96 415.25,-283.98 427.77,-259.85"/>
<polygon fill="black" stroke="black" points="430.88,-261.46 432.38,-250.97 424.67,-258.23 430.88,-261.46"/>
</g>
<!-- install -->
<g id="node18" class="node">
<title>install</title>
<ellipse fill="none" stroke="black" cx="318.72" cy="-72" rx="39.79" ry="18"/>
<text text-anchor="middle" x="318.72" y="-68.3" font-family="Times,serif" font-size="14.00">install</text>
</g>
<!-- install&#45;&gt;:all -->
<g id="edge18" class="edge">
<title>install&#45;&gt;:all</title>
<path fill="none" stroke="black" d="M352.25,-81.85C361.81,-85.96 371.7,-91.56 379.17,-99 409.25,-128.95 426.28,-176.2 434.61,-206.11"/>
<polygon fill="black" stroke="black" points="431.26,-207.14 437.19,-215.92 438.03,-205.35 431.26,-207.14"/>
</g>
<!-- test -->
<g id="node19" class="node">
<title>test</title>
<ellipse fill="none" stroke="black" cx="318.72" cy="-18" rx="28.7" ry="18"/>
<text text-anchor="middle" x="318.72" y="-14.3" font-family="Times,serif" font-size="14.00">test</text>
</g>
<!-- test&#45;&gt;:all -->
<g id="edge19" class="edge">
<title>test&#45;&gt;:all</title>
<path fill="none" stroke="black" d="M345.44,-24.5C357.14,-28.64 370.32,-35.12 379.17,-45 420.55,-91.17 434.38,-165.54 438.95,-205.85"/>
<polygon fill="black" stroke="black" points="435.5,-206.43 439.99,-216.03 442.46,-205.72 435.5,-206.43"/>
</g>
<!-- cover&#45;html&#45;&gt;:all -->
<g id="edge20" class="edge">
<title>cover&#45;html&#45;&gt;:all</title>
<path fill="none" stroke="black" d="M379.38,-234C388.06,-234 396.76,-234 404.78,-234"/>
<polygon fill="black" stroke="black" points="404.88,-237.5 414.88,-234 404.88,-230.5 404.88,-237.5"/>
</g>
</g>
</svg>
